<?xml version="1.0" standalone="no"?>
<!DOCTYPE svg PUBLIC "-//W3C//DTD SVG 20010904//EN"
 "http://www.w3.org/TR/2001/REC-SVG-20010904/DTD/svg10.dtd">
<svg version="1.0" xmlns="http://www.w3.org/2000/svg"
 width="2000.000000pt" height="2000.000000pt" viewBox="0 0 2000.000000 2000.000000"
 preserveAspectRatio="xMidYMid meet">
<metadata>
Created by potrace 1.15, written by Peter Selinger 2001-2017
</metadata>
<g transform="translate(0.000000,2000.000000) scale(0.100000,-0.100000)"
fill="#549AD4" stroke="none">
<path d="M1670 17440 c-113 -4 -260 -8 -327 -9 l-123 -1 0 -285 0 -285 453 0
c363 0 464 -3 515 -15 253 -60 427 -281 518 -660 57 -239 55 -184 64 -1970 10
-1889 15 -2039 81 -2490 161 -1106 539 -2054 1096 -2750 128 -160 368 -397
493 -487 551 -398 1479 -743 2695 -1002 506 -108 1204 -225 1630 -273 l70 -8
0 -1310 c0 -1204 -2 -1321 -18 -1450 -49 -376 -145 -657 -311 -900 -73 -108
-228 -267 -314 -323 -190 -123 -597 -203 -1181 -232 -112 -5 -266 -10 -342
-10 l-139 0 0 -215 0 -215 3470 0 3470 0 0 213 0 214 -262 6 c-540 14 -916 60
-1189 148 -167 53 -231 92 -359 219 -260 258 -407 589 -472 1065 -22 158 -22
176 -23 1475 l0 1315 70 7 c288 31 923 132 1340 214 1377 272 2387 630 2985
1062 125 90 365 327 493 487 509 636 871 1488 1051 2475 58 318 90 598 106
915 6 116 15 950 20 1855 9 1781 7 1726 64 1965 91 379 265 600 518 660 51 12
152 15 516 15 l452 0 0 284 0 284 -297 8 c-456 14 -1117 11 -1258 -4 -655 -71
-1119 -228 -1430 -482 -223 -183 -399 -479 -546 -923 -181 -548 -312 -1392
-359 -2317 -5 -113 -12 -236 -15 -275 -3 -38 -10 -443 -15 -900 -12 -1082 -29
-1480 -81 -1940 -80 -714 -224 -1147 -505 -1525 -98 -132 -329 -364 -455 -458
-423 -315 -1054 -556 -1789 -686 -271 -48 -453 -71 -803 -101 l-68 -6 4 3863
c3 2867 7 3889 16 3963 27 236 63 386 126 521 63 139 191 303 294 378 244 179
757 283 1428 289 l223 2 0 308 0 307 -3250 0 -3250 0 0 -307 0 -308 228 -2
c592 -6 1034 -82 1317 -226 253 -129 440 -419 500 -772 39 -231 38 -182 42
-4153 l4 -3863 -68 6 c-807 70 -1424 205 -1957 431 -371 157 -629 325 -871
568 -381 381 -566 770 -675 1419 -88 524 -115 1002 -130 2286 -5 460 -12 868
-15 906 -3 39 -10 162 -15 275 -54 1070 -214 1987 -447 2555 -172 420 -370
664 -681 836 -292 162 -636 261 -1112 320 -137 17 -235 21 -580 24 -228 1
-507 -1 -620 -5z"/>
</g>
</svg>
